<svg width="0" height="0" class="hidden">
  <symbol xmlns="http://www.w3.org/2000/svg" viewBox="0 0 512 512" id="vk">
    <path d="M440.649 295.361c16.984 16.582 34.909 32.182 50.142 50.436 6.729 8.112 13.099 16.482 17.973 25.896 6.906 13.382.651 28.108-11.348 28.907l-74.59-.034c-19.238 1.596-34.585-6.148-47.489-19.302-10.327-10.519-19.891-21.714-29.821-32.588-4.071-4.444-8.332-8.626-13.422-11.932-10.182-6.609-19.021-4.586-24.84 6.034-5.926 10.802-7.271 22.762-7.853 34.8-.799 17.564-6.108 22.182-23.751 22.986-37.705 1.778-73.489-3.926-106.732-22.947-29.308-16.768-52.034-40.441-71.816-67.24-38.513-52.183-68.008-109.525-94.516-168.473-5.967-13.281-1.603-20.41 13.051-20.663 24.333-.473 48.663-.439 73.025-.034 9.89.145 16.437 5.817 20.256 15.16 13.165 32.371 29.274 63.169 49.494 91.716 5.385 7.6 10.876 15.201 18.694 20.55 8.65 5.923 15.236 3.96 19.305-5.676 2.582-6.11 3.713-12.691 4.295-19.234 1.928-22.513 2.182-44.988-1.199-67.422-2.076-14.001-9.962-23.065-23.933-25.714-7.129-1.351-6.068-4.004-2.616-8.073 5.995-7.018 11.634-11.387 22.875-11.387h84.298c13.271 2.619 16.218 8.581 18.035 21.934l.072 93.637c-.145 5.169 2.582 20.51 11.893 23.931 7.452 2.436 12.364-3.526 16.836-8.251 20.183-21.421 34.588-46.737 47.457-72.951 5.711-11.527 10.622-23.497 15.381-35.458 3.526-8.875 9.059-13.242 19.056-13.049l81.132.072c2.406 0 4.84.035 7.17.434 13.671 2.33 17.418 8.211 13.195 21.561-6.653 20.945-19.598 38.4-32.255 55.935-13.53 18.721-28.001 36.802-41.418 55.634-12.328 17.2-11.349 25.868 3.964 40.805z"
      fill="#436eab"></path>
  </symbol>
  <symbol xmlns="http://www.w3.org/2000/svg" viewBox="0 0 26.458 33.072" id="call">
    <path d="M3.85.52c-.426.02-.844.201-1.15.538L.554 3.417c.003-.007-.008-.006-.069.08a.52.52 0 0 0-.074.146c-.874 2.78-.288 5.84 1.138 8.75 1.425 2.91 3.7 5.695 6.311 7.98 2.611 2.286 5.557 4.073 8.367 4.96 2.809.887 5.532.875 7.55-.59a.52.52 0 0 0 .063-.053c.052-.053.054-.06.046-.051l.008-.01 2.135-2.349a1.67 1.67 0 0 0-.11-2.348l-5.066-4.606a1.67 1.67 0 0 0-2.348.11l-2.291 2.52c-1.86-.539-3.451-1.452-4.98-2.843-1.53-1.391-2.59-2.89-3.302-4.69l2.29-2.52a1.67 1.67 0 0 0-.109-2.349L5.048.948A1.658 1.658 0 0 0 3.851.52zm.05 1.034a.62.62 0 0 1 .446.166L9.41 6.326a.609.609 0 0 1 .042.877L6.919 9.986a.52.52 0 0 0-.103.529c.769 2.097 2.009 3.818 3.715 5.37s3.535 2.624 5.695 3.19a.52.52 0 0 0 .518-.152l2.533-2.784a.608.608 0 0 1 .876-.041l5.066 4.606c.26.238.278.616.04.876l-2.117 2.328c-1.656 1.19-3.99 1.256-6.603.43-2.623-.827-5.471-2.543-7.992-4.749-2.52-2.206-4.714-4.9-6.063-7.651C1.15 9.214.666 6.46 1.4 4.034l2.068-2.273a.62.62 0 0 1 .43-.208z"
      color="#000" solidColor="#000000" whiteSpace="normal"></path>
    <text y="41.458" font-size="5" font-weight="bold" font-family="&#x27;Helvetica Neue&#x27;, Helvetica, Arial-Unicode, Arial, Sans-serif">Created by mardjoe</text>
    <text y="46.458" font-size="5" font-weight="bold" font-family="&#x27;Helvetica Neue&#x27;, Helvetica, Arial-Unicode, Arial, Sans-serif">from the Noun Project</text>
  </symbol>
  <symbol xmlns="http://www.w3.org/2000/svg" viewBox="206 206 100 125" id="study-program">
    <path d="M298.683 224.262l-.002-.007a.81.81 0 0 0-.069-.13l-.007-.009a.792.792 0 0 0-.097-.121l-13.817-13.816a.753.753 0 0 0-.117-.094l-.026-.017a.87.87 0 0 0-.104-.056c-.011-.005-.021-.01-.031-.013a.837.837 0 0 0-.284-.058l-.015-.001h-60.868a.816.816 0 0 0-.816.817v84.268a.79.79 0 0 0 .016.16c.005.023.013.044.02.066.009.029.016.058.027.086.011.025.025.049.039.074.012.021.022.045.036.066.028.041.06.08.094.115.003.003.004.007.008.009l6.223 6.222a.817.817 0 0 0 1.155 0l5.648-5.645 5.646 5.645a.813.813 0 0 0 1.155 0l5.645-5.644 5.648 5.644a.817.817 0 0 0 1.155 0l5.645-5.644 5.645 5.644a.815.815 0 0 0 1.154 0l5.65-5.645 5.645 5.645a.814.814 0 0 0 1.155 0l5.645-5.644 5.649 5.644a.815.815 0 0 0 1.154 0l6.223-6.222c.012-.012.021-.026.032-.039.023-.027.048-.054.068-.084.019-.027.032-.058.047-.087.01-.019.021-.035.027-.054.017-.037.025-.075.035-.113.004-.013.01-.025.013-.038a.852.852 0 0 0 .017-.167v-70.445a.859.859 0 0 0-.066-.312zm-13.754-11.533l11.028 11.027h-11.028v-11.027zm12.183 81.956l-5.405 5.405-5.649-5.645a.817.817 0 0 0-1.154 0l-5.645 5.645-5.645-5.645a.818.818 0 0 0-1.155 0l-5.649 5.645-5.644-5.642-.001-.003a.815.815 0 0 0-1.155 0l-.001.001-5.644 5.644-5.648-5.645a.818.818 0 0 0-1.155 0l-5.645 5.645-5.646-5.645a.818.818 0 0 0-1.155 0l-5.648 5.645-5.406-5.405v-83.113h59.234v13c0 .451.366.817.817.817h12.998l.001 69.296z"></path>
    <path d="M230.152 219.298h26.746a.817.817 0 0 0 0-1.634h-26.746a.817.817 0 1 0 0 1.634zm0 5.051h42.891a.817.817 0 0 0 0-1.634h-42.891a.817.817 0 1 0 0 1.634zm-.817 4.534v26.446c0 .451.365.817.817.817h60.87a.816.816 0 0 0 .816-.817v-26.446a.816.816 0 0 0-.816-.817h-60.87a.817.817 0 0 0-.817.817zm18.051.817h42.818v7.029h-42.818V229.7zm0 8.663h42.818v7.026h-42.818v-7.026zm0 8.659h42.818v7.49h-42.818v-7.49zM230.969 229.7h14.784v7.029h-14.784V229.7zm0 8.663h14.784v7.026h-14.784v-7.026zm0 8.659h14.784v7.49h-14.784v-7.49zm60.053 12.799h-60.87a.817.817 0 0 0-.817.817v26.445a.816.816 0 1 0 1.633 0v-8.306h14.784v8.306a.816.816 0 0 0 1.633 0v-8.306h42.818v8.306a.816.816 0 0 0 1.633 0v-26.445a.813.813 0 0 0-.814-.817zm-45.269 17.322h-14.784v-7.025h14.784v7.025zm0-8.66h-14.784v-7.027h14.784v7.027zm44.451 8.66h-42.818v-7.025h42.818v7.025zm0-8.66h-42.818v-7.027h42.818v7.027zm-71.647-58.544a.817.817 0 0 0-.817.817v84.268a.817.817 0 0 0 1.634 0v-84.268a.817.817 0 0 0-.817-.817zm-4.492 0a.817.817 0 0 0-.817.817v84.268a.817.817 0 0 0 1.633 0v-84.268a.816.816 0 0 0-.816-.817z"></path>
    <text x="206" y="321" font-size="5" font-weight="bold" font-family="&#x27;Helvetica Neue&#x27;, Helvetica, Arial-Unicode, Arial, Sans-serif">Created by Cuby Design</text>
    <text x="206" y="326" font-size="5" font-weight="bold" font-family="&#x27;Helvetica Neue&#x27;, Helvetica, Arial-Unicode, Arial, Sans-serif">from the Noun Project</text>
  </symbol>
  <symbol xmlns="http://www.w3.org/2000/svg" viewBox="0 0 67 83.75" id="open-book">
    <path d="M9.733 16.768h20.033v1.5H9.733zm3 5.593h17.033v1.5H12.733zm-3 5.593h20.033v1.5H9.733zm3 5.593h17.033v1.5H12.733zm-3 5.592h20.033v1.5H9.733zm3 5.594h17.033v1.5H12.733zm24.5-27.965h20.033v1.5H37.233zm0 5.593h17.033v1.5H37.233zm0 5.593h20.033v1.5H37.233zm0 5.593h17.033v1.5H37.233zm0 5.592h20.033v1.5H37.233zm0 5.594h17.033v1.5H37.233z"></path>
    <path d="M64.5 15.06h-2.75v-4.13a.75.75 0 0 0-.75-.75H38.58a5.8 5.8 0 0 0-5.08 2.953 5.802 5.802 0 0 0-5.08-2.953H6a.75.75 0 0 0-.75.75v4.13H2.5a.75.75 0 0 0-.75.75v40.26c0 .414.336.75.75.75h62a.75.75 0 0 0 .75-.75V15.81a.75.75 0 0 0-.75-.75zm-25.92-3.38h21.67v40.17H36.98c-1.032 0-2.063.435-2.73 1V16a4.306 4.306 0 0 1 4.33-4.32zm-31.83 0h21.67a4.294 4.294 0 0 1 4.32 4.155c.002.032.005.134.01.165v36.846c-.665-.561-1.686-.996-2.72-.996H6.75V11.68zm-3.5 4.88h2V52.6c0 .414.336.75.75.75h24.03a2.72 2.72 0 0 1 2.602 1.97H3.25V16.56zm60.5 38.76H34.369a2.71 2.71 0 0 1 2.611-1.97H61a.75.75 0 0 0 .75-.75V16.56h2v38.76z"></path>
    <text y="82" font-size="5" font-weight="bold" font-family="&#x27;Helvetica Neue&#x27;, Helvetica, Arial-Unicode, Arial, Sans-serif">Created by Vectors Point</text>
    <text y="87" font-size="5" font-weight="bold" font-family="&#x27;Helvetica Neue&#x27;, Helvetica, Arial-Unicode, Arial, Sans-serif">from the Noun Project</text>
  </symbol>
  <symbol xmlns="http://www.w3.org/2000/svg" viewBox="0 0 67 83.75" id="mobile-learning">
    <path d="M60.748 1.748h-31a3.664 3.664 0 0 0-3.66 3.66V18.24l-23.03 9.666a.749.749 0 0 0-.096 1.335L5.9 31v18.732a3.384 3.384 0 0 0-2.629 3.295v1.806c0 .414.336.75.75.75h5.26a.75.75 0 0 0 .75-.75v-1.806a3.386 3.386 0 0 0-2.63-3.293V31.897l2.321 1.39c-.071.535-.009-.934-.033 8.72 0 3.174 8.13 4.874 16.4 4.972v14.619c0 .755.231 1.457.627 2.04a3.656 3.656 0 0 0 3.03 1.614h31a3.66 3.66 0 0 0 3.657-3.656c0 .1-.004-3.097 0-56.188 0-1.99-1.646-3.66-3.654-3.66zM8.53 53.026v1.056H4.77v-1.056c0-1.039.842-1.884 1.875-1.884 1.04 0 1.885.845 1.885 1.884zm52.218 10.722h-31a2.162 2.162 0 0 1-1.79-.948 2.144 2.144 0 0 1-.368-1.204v-5.068h35.308v5.07a2.17 2.17 0 0 1-2.15 2.15zm2.15-8.72h-35.31v-8.045c4.038-.046 16.41-.935 16.41-4.975-.005-6.065.01-8.524-.02-8.733l6.736-4.034a.75.75 0 0 0-.096-1.335l-23.03-9.666v-6.264h35.31v43.052zm-36.06-18c-4.16 0-12.17.538-15.65 2.81.022-6.95-.24-6.498.615-7.087 2.162-1.592 8.344-2.703 15.035-2.703 2.918 0 15.66.802 15.66 3.5v6.29c-3.513-2.293-11.482-2.81-15.66-2.81zm.752-31.62c0-1.189.967-2.156 2.156-2.156h31c1.19 0 2.152.98 2.152 2.156v5.068H27.59V5.408zm-.752 14.144l21.834 9.164-5.41 3.237c-2.877-2.852-12.39-3.405-16.424-3.405-4.038 0-13.553.555-16.423 3.406l-5.412-3.238 21.835-9.164zm-15.65 22.456c0-1.214 5.375-3.48 15.65-3.48 10.281 0 15.66 2.266 15.66 3.48 0 1.215-5.379 3.48-15.66 3.48-10.275 0-15.65-2.265-15.65-3.48z"></path>
    <path d="M45.246 57.66a2.481 2.481 0 0 0 0 4.961c1.368 0 2.48-1.113 2.48-2.481s-1.112-2.48-2.48-2.48zm0 3.461a.981.981 0 1 1 .002-1.961.981.981 0 0 1-.002 1.961zM42.385 6.114h5.722v1.5h-5.722z"></path>
    <text y="82" font-size="5" font-weight="bold" font-family="&#x27;Helvetica Neue&#x27;, Helvetica, Arial-Unicode, Arial, Sans-serif">Created by Vectors Point</text>
    <text y="87" font-size="5" font-weight="bold" font-family="&#x27;Helvetica Neue&#x27;, Helvetica, Arial-Unicode, Arial, Sans-serif">from the Noun Project</text>
  </symbol>
  <symbol xmlns="http://www.w3.org/2000/svg" viewBox="0 0 8472 12330" fill-rule="evenodd" clip-rule="evenodd" shape-rendering="geometricPrecision" text-rendering="geometricPrecision" image-rendering="optimizeQuality" id="insurance">
    <path d="M167 4236c0 110-167 110-167 0C0 1897 1897 0 4236 0c2340 0 4236 1897 4236 4236 0 110-166 110-166 0 0-1581-2598-1582-2598 0 0 110-171 110-171 0 0-1577-2602-1577-2602 0 0 110-171 110-171 0 0-1574-2597-1585-2597 0zm2612-614c45-910 188-1726 396-2349 166-495 376-871 614-1082C2003 386 557 1740 234 3496c615-887 2035-816 2545 126zm2745-41c-46-875-185-1658-385-2255-516-1545-1290-1545-1806 0-200 597-338 1380-385 2255 555-943 2021-943 2576 0zm2714-85C7916 1740 6470 386 4683 191c239 211 448 587 614 1082 208 623 351 1439 396 2349 513-947 1937-1003 2545-126zM3680 6174v-860c-155 103-277 262-277 456 0 189 124 314 277 404zm167 267c-297-136-610-295-610-671 0-388 295-582 610-727v1398zm945 1031v870c157-104 280-264 280-458 0-191-126-320-280-412zm-166-268c298 138 613 302 613 680 0 389-297 583-613 727V7204z"></path>
    <path d="M4792 4335c684 158 1387 670 1387 1435 0 655-1107 631-1107 0 0-195-123-355-280-458v1224c633 207 1389 578 1389 1348 0 766-703 1277-1389 1434-3 729-1110 728-1112-1-390-90-729-272-974-513-257-254-409-573-409-920 0-645 1106-645 1106 0 0 193 122 352 277 455V7116c-628-203-1388-585-1388-1348 0-766 703-1277 1388-1434 3-729 1110-728 1112 1zm-945 2v133c-651 129-1389 546-1389 1298 0 723 810 1047 1389 1226v1616c-313-143-610-336-610-726 0-426-774-426-774 0 0 301 134 579 360 801 287 284 635 419 1024 496v134c0 513 779 513 779 0v-133c653-130 1388-547 1388-1298 0-730-808-1044-1388-1227V5042c314 143 613 336 613 728 0 415 773 432 773 0 0-751-734-1169-1386-1299v-134c0-513-779-513-779 0z"></path>
    <text y="9879" font-size="5" font-weight="bold" font-family="&#x27;Helvetica Neue&#x27;, Helvetica, Arial-Unicode, Arial, Sans-serif">Created by de det</text>
    <text y="9884" font-size="5" font-weight="bold" font-family="&#x27;Helvetica Neue&#x27;, Helvetica, Arial-Unicode, Arial, Sans-serif">from the Noun Project</text>
  </symbol>
  <symbol viewBox="0 0 512 512" xmlns="http://www.w3.org/2000/svg" xmlns:xlink="http://www.w3.org/1999/xlink" id="instagram">
    <radialGradient id="b" cx="104.957" cy="447.447" gradientUnits="userSpaceOnUse" r="564.646">
      <stop offset="0" stop-color="#fae100"></stop>
      <stop offset=".054" stop-color="#fadc04"></stop>
      <stop offset=".117" stop-color="#fbce0e"></stop>
      <stop offset=".183" stop-color="#fcb720"></stop>
      <stop offset=".251" stop-color="#fe9838"></stop>
      <stop offset=".305" stop-color="#ff7950"></stop>
      <stop offset=".492" stop-color="#ff1c74"></stop>
      <stop offset="1" stop-color="#6c1cd1"></stop>
    </radialGradient>
    <linearGradient id="c" gradientUnits="userSpaceOnUse" x1="196.373" x2="-671.016" y1="222.46" y2="-265.446">
      <stop offset="0" stop-color="#a1b5d8" stop-opacity="0"></stop>
      <stop offset=".309" stop-color="#90a2bd" stop-opacity=".31"></stop>
      <stop offset=".755" stop-color="#7c8b9c" stop-opacity=".757"></stop>
      <stop offset="1" stop-color="#748290"></stop>
    </linearGradient>
    <linearGradient id="d" gradientUnits="userSpaceOnUse" x1="256" x2="256" y1="451.966" y2="531.774">
      <stop offset="0" stop-color="#fae100" stop-opacity="0"></stop>
      <stop offset=".307" stop-color="#fca800" stop-opacity=".306"></stop>
      <stop offset=".627" stop-color="#fe7300" stop-opacity=".627"></stop>
      <stop offset=".869" stop-color="#ff5200" stop-opacity=".867"></stop>
      <stop offset="1" stop-color="#ff4500"></stop>
    </linearGradient>
    <linearGradient id="a">
      <stop offset="0" stop-color="#833ab4" stop-opacity="0"></stop>
      <stop offset="1" stop-color="#833ab4"></stop>
    </linearGradient>
    <linearGradient id="e" gradientUnits="userSpaceOnUse" x1="226.872" x2="100.161" xlink:href="#a" y1="226.148" y2="99.436"></linearGradient>
    <linearGradient id="f" gradientUnits="userSpaceOnUse" x1="350.9" x2="287.656" xlink:href="#a" y1="468.287" y2="170.138"></linearGradient>
    <linearGradient id="g" gradientUnits="userSpaceOnUse" x1="374.965" x2="120.941" xlink:href="#a" y1="374.965" y2="120.941"></linearGradient>
    <linearGradient id="h" gradientUnits="userSpaceOnUse" x1="393.807" x2="309.806" xlink:href="#a" y1="221.263" y2="137.262"></linearGradient>
    <linearGradient id="i" gradientUnits="userSpaceOnUse" x1="357.658" x2="150.543" y1="155.05" y2="362.165">
      <stop offset="0" stop-color="#833ab4"></stop>
      <stop offset=".092" stop-color="#9c3495"></stop>
      <stop offset=".293" stop-color="#dc2546"></stop>
      <stop offset=".392" stop-color="#fd1d1d"></stop>
      <stop offset=".559" stop-color="#fc6831"></stop>
      <stop offset=".689" stop-color="#fc9b40"></stop>
      <stop offset=".752" stop-color="#fcaf45"></stop>
      <stop offset=".781" stop-color="#fdb750"></stop>
      <stop offset=".866" stop-color="#fecb6a"></stop>
      <stop offset=".942" stop-color="#ffd87a"></stop>
      <stop offset="1" stop-color="#ffdc80"></stop>
    </linearGradient>
    <path d="M503.234 91.578c-4.66-43.664-39.144-78.156-82.812-82.812-109.508-11.688-219.336-11.688-328.84 0-43.668 4.66-78.156 39.148-82.816 82.812-11.688 109.504-11.688 219.336 0 328.84 4.66 43.668 39.148 78.156 82.812 82.816 109.504 11.688 219.336 11.688 328.844 0 43.668-4.66 78.152-39.148 82.812-82.816 11.688-109.504 11.688-219.332 0-328.84zm0 0"
      fill="url(#b)"></path>
    <path d="M475.387 110.098c-4.133-38.746-34.735-69.352-73.485-73.489-97.172-10.367-194.632-10.367-291.804 0-38.746 4.137-69.352 34.743-73.489 73.489-10.367 97.172-10.367 194.632 0 291.8 4.137 38.75 34.743 69.356 73.489 73.489 97.172 10.37 194.632 10.37 291.8 0 38.75-4.133 69.356-34.739 73.489-73.489 10.37-97.168 10.37-194.628 0-291.8zm0 0"
      fill="url(#c)"></path>
    <path d="M7.672 409.805c.351 3.539.715 7.078 1.094 10.617 4.66 43.664 39.148 78.152 82.816 82.812 109.504 11.688 219.336 11.688 328.84 0 43.668-4.66 78.152-39.148 82.812-82.812.38-3.54.743-7.078 1.098-10.617zm0 0" fill="url(#d)"></path>
    <path d="M503.234 420.418a1547.774 1547.774 0 0 0 8.711-176.7l-117.03-117.03c-14.622-16.692-35.978-27.11-61.071-28.012-51.606-1.86-103.375-1.766-154.989.008-42.867 1.476-72.843 30.289-80.53 72.636-1.356 7.477-2.169 15.051-3.235 22.582v124.149c.59 4.023 1.457 8.027 1.726 12.074 1.72 25.758 12.305 47.82 29.254 62.746l119.094 119.09c58.445.41 116.895-2.496 175.258-8.727 43.668-4.66 78.152-39.148 82.812-82.816zm0 0"
      fill="url(#e)"></path>
    <path d="M503.234 420.422c-4.656 43.66-39.152 78.156-82.812 82.812a1548.657 1548.657 0 0 1-175.254 8.727L126.254 393.047c13.785 12.066 31.754 19.414 52.605 20.2 51.602 1.937 103.383 1.886 154.985.026 46.672-1.687 80.445-36.23 81.902-82.902a2373.981 2373.981 0 0 0 0-148.793c-.664-21.531-8.223-40.476-20.754-54.812L511.95 243.723a1550.386 1550.386 0 0 1-8.715 176.699zm0 0"
      fill="url(#f)"></path>
    <path d="M316.414 200.559c-14.992-16.325-36.504-26.567-60.414-26.567-45.29 0-82.008 36.719-82.008 82.008 0 23.91 10.242 45.422 26.567 60.414l189.738 189.738a1564.245 1564.245 0 0 0 30.121-2.918c43.668-4.66 78.156-39.148 82.816-82.816a1564.245 1564.245 0 0 0 2.918-30.121zm0 0"
      fill="url(#g)"></path>
    <path d="M511.008 311.152L358.305 158.453c-3.563-4.676-9.176-7.71-15.508-7.71-10.774 0-19.512 8.734-19.512 19.51 0 6.333 3.035 11.946 7.711 15.509l177.281 177.285a1537.438 1537.438 0 0 0 2.73-51.895zm0 0" fill="url(#h)"></path>
    <path d="M95.09 193.902c1.066-7.53 1.879-15.105 3.234-22.582 7.684-42.347 37.664-71.16 80.531-72.636 51.614-1.774 103.383-1.868 154.989-.008 46.656 1.68 80.445 36.226 81.902 82.898 1.55 49.559 1.55 99.238 0 148.797-1.457 46.672-35.234 81.215-81.898 82.899-51.606 1.863-103.387 1.91-154.989-.028-46.664-1.754-78.922-36.379-82.043-83.12-.27-4.044-1.136-8.052-1.726-12.075V193.902zM256.043 385.61c23.617 0 47.258.707 70.844-.164 36.98-1.37 59.726-23.441 60.59-60.386a2973.28 2973.28 0 0 0 0-138.172c-.864-36.938-23.625-59.524-60.59-60.309a3343.88 3343.88 0 0 0-140.805 0c-36.684.77-59.496 22.899-60.492 59.43a2579.097 2579.097 0 0 0 0 139.933c.996 36.528 23.808 58.145 60.496 59.504 23.289.867 46.637.164 69.957.164zm0 0"
      fill="url(#i)"></path>
    <g fill="#fff">
      <path d="M95.09 193.902c1.066-7.53 1.879-15.105 3.234-22.582 7.684-42.347 37.664-71.16 80.531-72.636 51.614-1.774 103.383-1.868 154.989-.008 46.656 1.68 80.445 36.226 81.902 82.898 1.55 49.559 1.55 99.238 0 148.797-1.457 46.672-35.234 81.215-81.898 82.899-51.606 1.863-103.387 1.91-154.989-.028-46.664-1.754-78.922-36.379-82.043-83.12-.27-4.044-1.136-8.052-1.726-12.075V193.902zM256.043 385.61c23.617 0 47.258.707 70.844-.164 36.98-1.37 59.726-23.441 60.59-60.386a2973.28 2973.28 0 0 0 0-138.172c-.864-36.938-23.625-59.524-60.59-60.309a3343.88 3343.88 0 0 0-140.805 0c-36.684.77-59.496 22.899-60.492 59.43a2579.097 2579.097 0 0 0 0 139.933c.996 36.528 23.808 58.145 60.496 59.504 23.289.867 46.637.164 69.957.164zm0 0"></path>
      <path d="M256 173.996c-45.29 0-82.008 36.715-82.008 82.004 0 45.293 36.719 82.008 82.008 82.008 45.293 0 82.008-36.715 82.008-82.008 0-45.29-36.715-82.004-82.008-82.004zm0 135.777c-29.7 0-53.773-24.074-53.773-53.773S226.3 202.227 256 202.227 309.773 226.3 309.773 256 285.7 309.773 256 309.773zm106.305-139.519c0 10.773-8.735 19.508-19.508 19.508s-19.512-8.735-19.512-19.508c0-10.777 8.738-19.512 19.512-19.512s19.508 8.735 19.508 19.512zm0 0"></path>
    </g>
  </symbol>
  <symbol xmlns="http://www.w3.org/2000/svg" viewBox="0 0 67 83.75" id="global-communication">
    <path d="M5.787 65.502h55.48c.275-6.3-.178-16.752-4.068-21.727l-.141-.179-8.5-4.25c.184-.62.275-1.187.311-1.605a2.933 2.933 0 0 0-.207-1.398c-1.402-3.341-4.37-5.1-6.002-5.849.498-.998.819-2.069.973-3.163a2.72 2.72 0 0 0 1.911-1.961l.992-4.014a2.706 2.706 0 0 0-.312-2.067 2.71 2.71 0 0 0-.609-.69c2.798-6.327-1.888-12.293-2.143-12.607C38.398.53 31.988 1.551 31.649 1.612c-9.25 1.928-12.82 8.988-10.805 17.267a2.71 2.71 0 0 0-.627 2.476l.997 4.018a2.72 2.72 0 0 0 1.897 1.954 10.318 10.318 0 0 0 2.386 5.28v3.181c-13.274 6.77-4.863 2.45-15.502 7.81-.02.1-4.991 5.36-4.252 20.952l.044.952zm53.552-2h-9.13v-3.819l6.038-13.766c3.026 5 3.138 14.547 3.092 17.585zm-12.462-25.93c-.352 4.03-2.572 2.811-3.942 5.917-1.078-1.18-1.402-2.595-1.112-4.11.523-2.781-1.182-3.608-.76-6.53l.063-.067v-.01c.037-.04.373-.438.47-.564 3.613 1.568 5.352 4.484 5.281 5.363zm-19.38-3.169a10.315 10.315 0 0 0 5.88 1.843c2.05 0 3.998-.594 5.667-1.688.232 2.297 1.134 2.757.814 4.448-.06.314-.093.623-.112.927l-6.218 6.979-7.95-8.924 1.92-.998v-2.587zm-2.5-8.54V15.195c.968-1.782 2.288-3.074 3.927-3.85 4.392 2.475 9.446 6.167 12.836 9.883-.003 4.732.014 4.745-.018 5.134l-.002.025c-.265 4.297-3.813 7.859-8.364 7.859-4.423 0-8.096-3.458-8.362-7.902a5.616 5.616 0 0 1-.017-.481zm-1.238 13.09l9.769 10.965 6.558-7.36c.15.43.36.836.6 1.228l-7.158 8.915-10.676-13.295.907-.453zm20.001-14.7v-3.089l.746-.851c.04 1.564.21-.282-.746 3.94zM32.02 3.577c.397.024 5.727-.808 9.94 3.721.166.208 3.596 4.607 2.218 9.42-.472-2.141-1.294-4.886-2.593-6.196l-1.42 1.409c1.283 1.293 2.126 5.232 2.446 7.275-5.883-6.13-13.472-10.01-13.576-10.076-.381.236-3.593.844-5.925 5.358l-.112.216v3.315l-.294.003C21.221 10.897 24.06 5.238 32.02 3.577zm-9.526 16.502l.504 2.037v2.14l-.838-3.381c-.124-.504.251-.695.334-.796zm-1.47 20.242l12.505 15.574 8.46-10.537c.921.82 1.364.936 3.315 1.935l-.658-2.223c-.167-.564.494-1.47.893-1.886a6.04 6.04 0 0 0 2.19-2.016l6.904 3.452-6.424 14.644v4.238H18.846v-4.238L12.42 44.62l8.603-4.3zm-10.217 5.6l6.04 13.763v3.818h-9.13c-.047-3.037.067-12.58 3.09-17.58z"></path>
    <text y="82" font-size="5" font-weight="bold" font-family="&#x27;Helvetica Neue&#x27;, Helvetica, Arial-Unicode, Arial, Sans-serif">Created by Vectors Point</text>
    <text y="87" font-size="5" font-weight="bold" font-family="&#x27;Helvetica Neue&#x27;, Helvetica, Arial-Unicode, Arial, Sans-serif">from the Noun Project</text>
  </symbol>
  <symbol xmlns="http://www.w3.org/2000/svg" viewBox="0 0 68 85" id="fire">
    <path d="M54.813 35.223c-.58-1.31-1.38-2.6-2.55-4.09-2.95-3.74-3.85-12.08-3.86-12.16a1.004 1.004 0 0 0-1.75-.56c-3.52 3.97-2.04 10.1-1.24 12.55.22.67.46 1.46.63 2.26 1.3 6.47-1.21 9.4-1.8 9.99-.57.16-.96.08-1.32-.31-1.24-1.37-1.65-5.86-1.07-11.71.12-1.19.09-2.26-.08-3.26-1.223-7.19-5.708-11.803-6.85-13.42-3.14-4.68-3.46-12.47-3.47-12.54a.98.98 0 0 0-.55-.86.992.992 0 0 0-1.01.07c-5.24 3.59-4.79 12.24-4.06 17.07.17 1.12.5 2.26 1.07 3.7 2.03 5.15-.4 11.8-.42 11.86-.02.06-.04.11-.05.17-.31 1.64-.83 2.62-1.41 2.62a.68.68 0 0 1-.19-.03c-.71-.15-1.08-.91-1.09-1.57-.04-8.53-8.53-11.4-8.62-11.43a.99.99 0 0 0-1.06.3.99.99 0 0 0-.14 1.1c.1.21.42 1.13.2 4.38a37.63 37.63 0 0 1-1.57 8.58c-2.02 6.64-1.7 12.93-1.68 13.23 1.553 17.03 25.844 20.015 40.26 10.42 1.58-1.05 2.87-2.25 3.82-3.57 5.32-7.4 2.19-17.45-.14-22.79zm-36.95 16.27a.996.996 0 0 1-.94 1.05h-.06c-.53 0-.97-.41-1-.94-.09-1.46-.07-2.99.04-4.65.04-.55.52-.96 1.07-.93.55.04.97.52.93 1.07-.11 1.58-.13 3.02-.04 4.4zm.49-8.86c-.06.51-.49.88-.99.88-.04 0-.08 0-.13-.01-.54-.07-.93-.56-.87-1.11l.48-3.86c.07-.54.56-.93 1.12-.87.55.07.94.57.87 1.12l-.48 3.85zm29.694-27.952a1 1 0 0 1-.835-1.14c.063-.406.424-2.486 1.404-3.532a1 1 0 1 1 1.459 1.368c-.415.443-.768 1.71-.886 2.47a1 1 0 0 1-1.142.834zm-36.456 4.981c-.191-.744-.667-1.97-1.123-2.37a1 1 0 1 1 1.318-1.504c1.078.944 1.64 2.98 1.743 3.377a1 1 0 0 1-1.938.497z"></path>
    <text y="83" font-size="5" font-weight="bold" font-family="&#x27;Helvetica Neue&#x27;, Helvetica, Arial-Unicode, Arial, Sans-serif">Created by Vectors Point</text>
    <text y="88" font-size="5" font-weight="bold" font-family="&#x27;Helvetica Neue&#x27;, Helvetica, Arial-Unicode, Arial, Sans-serif">from the Noun Project</text>
  </symbol>
  <symbol xmlns="http://www.w3.org/2000/svg" viewBox="0 0 67 83.75" id="student">
    <path d="M5.02 26.559v5.71c0 .306.14.595.381.786a22.384 22.384 0 0 0 13.788 4.763c1.494 0 2.988-.156 4.45-.45a24.237 24.237 0 0 0 9.861 2.08c3.443 0 6.759-.705 9.862-2.08 6.233 1.258 12.875-.094 18.236-4.313.24-.19.381-.48.381-.787v-5.71c0-.837-.416-1.601-1.159-2.07L53.021 20.1c1.706-2.165 2.978-5.247 3.199-7.891.647-4.55-3.062-9.37-8.4-9.37-2.246 0-4.38.924-5.946 2.474-.054.054-.116.099-.168.154-.049.05-.088.11-.134.161-.032.034-.059.072-.09.107-1.525-2.782-4.458-4.502-7.914-4.502-.335 0-.665.023-.992.057-.02-.002-.036-.012-.057-.012a3.73 3.73 0 0 0-.787.11c-.032.009-.054.03-.083.042a9.04 9.04 0 0 0-6.076 4.348 8.42 8.42 0 0 0-6.41-2.938c-7.882 0-11.379 9.3-5.158 17.304l-7.87 4.37a2.404 2.404 0 0 0-1.115 2.045zm38.323 8.61c-.17.083-.337.171-.507.249l-.004.002a22.19 22.19 0 0 1-9.332 2.028 22.26 22.26 0 0 1-13.46-4.492v-5.788c0-.197.096-.372.206-.445l9.16-5.091c1.14.967 2.595 1.677 4.104 1.677 1.453 0 3.022-.72 4.139-1.701l9.048 5.081a.56.56 0 0 1 .263.479v5.787a22.36 22.36 0 0 1-3.617 2.215zm16.451-8.966a.408.408 0 0 1 .185.356v5.217c-3.97 2.98-8.746 4.332-13.585 3.992a26.607 26.607 0 0 0 2.183-1.533c.241-.19.383-.48.383-.787v-6.28c0-.877-.44-1.685-1.23-2.191l-4.807-2.702 1.169-.647c1.417 1.156 2.635 1.5 3.727 1.5 1.336 0 2.743-.656 3.787-1.53l8.188 4.605zM47.819 4.84c2.784 0 5.23 1.82 6.093 4.32a7.458 7.458 0 0 1-4.51-2.303 1 1 0 0 0-1.59.169c-1.141 1.911-3.011 3.187-5.138 3.55v-.007a9.84 9.84 0 0 0-.066-1.317l-.015-.134a11.19 11.19 0 0 0-.245-1.227c1.135-1.82 3.245-3.051 5.471-3.051zm-5.364 7.776a9.365 9.365 0 0 0 6.38-3.554c1.548 1.27 3.51 2.038 5.45 2.13-.015 3.615-2.967 9.937-6.466 9.937-2.696 0-4.999-3.857-5.859-6.53.219-.688.378-1.35.495-1.983zm.203 7.52l-1.787.99-1.804-1.014a16.05 16.05 0 0 0 1.808-2.85 14.649 14.649 0 0 0 1.783 2.874zm-2.696-5.865c-.965 2.877-3.438 7.039-6.452 7.039-3.514 0-6.506-5.776-7.076-9.47.152-.038 4.9.255 8.167-4.035 1.658 1.387 3.895 2.305 6.071 2.396.026 1.304-.29 2.836-.71 4.07zM33.568 3.233c5.606 0 6.673 4.825 6.76 4.925-2.032-.206-3.886-1.202-5.168-2.572a1 1 0 0 0-1.592.174c-1.11 1.878-2.852 3.203-4.868 3.767a8.692 8.692 0 0 1-2.352.31c.274-3.675 3.219-6.604 7.22-6.604zM26.13 17.242a15.962 15.962 0 0 0 1.84 2.9l-1.765.982-1.829-1.028a15.62 15.62 0 0 0 1.754-2.854zM19.162 4.84c2.268 0 4.346 1.15 5.504 3.053-.058.201-.215 1.004-.235 1.104a7.401 7.401 0 0 1-3.672-2.143.999.999 0 0 0-1.59.174 7.486 7.486 0 0 1-6.407 3.66c.318-3.28 3.061-5.848 6.4-5.848zm-6.312 7.843a9.494 9.494 0 0 0 7.345-3.622A9.326 9.326 0 0 0 24.34 11c.06 1.16.361 2.568.707 3.607-.552 1.694-1.612 3.712-2.926 5.053-.008.008-.02.012-.027.02-.823.867-1.992 1.45-2.912 1.45-3.215 0-5.73-5.058-6.332-8.446zM7.02 26.56c0-.152.067-.28.135-.327l8.3-4.606c.499.415.613.462.713.535v.001c.977.65 1.872.973 3.094.973 1.3 0 2.485-.551 3.527-1.4.059-.046.122-.09.178-.137l1.184.666-4.933 2.744a2.561 2.561 0 0 0-1.178 2.16v6.28c0 .307.14.597.383.786a26.797 26.797 0 0 0 2.184 1.535c-4.91.336-9.686-1.065-13.588-3.993V26.56z"></path>
    <path d="M64.038 43.142a4.157 4.157 0 0 0-4.048-.222l-12.34 5.962a4.256 4.256 0 0 0-4.25-4.178l-7.076.002c-3.489-3.033-7.948-4.89-12.003-4.988a502.055 502.055 0 0 0-9.261-.13v-2.02H1v23.226h14.06v-2.781c3.855 2.212 13.993 7.754 18.804 7.754.11 0 .216-.003.319-.01 8.46-.474 28.416-14.516 29.732-15.448A4.193 4.193 0 0 0 66 46.688c0-1.45-.733-2.776-1.962-3.546zM13.06 58.794H3V39.568h10.06v19.226zm49.826-10.2a.848.848 0 0 0-.09.055c-.205.147-20.731 14.663-28.725 15.113a4.91 4.91 0 0 1-.243.006c-4.22 0-14.508-5.551-18.768-8.069v-14.11c1.667.007 5.236.034 9.213.129 3.705.089 7.817 1.857 11.002 4.73l.286.258 7.84-.002a2.259 2.259 0 0 1 2.256 2.256 2.259 2.259 0 0 1-2.256 2.257H28.998v2h14.403c1.38 0 2.597-.671 3.375-1.693L60.86 44.72a2.142 2.142 0 0 1 2.116.115A2.145 2.145 0 0 1 64 46.688a2.19 2.19 0 0 1-1.114 1.906zM32.5 25.753h2v1.855h-2zm0 3.698h2v1.855h-2zm0 3.698h2v1.855h-2z"></path>
    <text y="82" font-size="5" font-weight="bold" font-family="&#x27;Helvetica Neue&#x27;, Helvetica, Arial-Unicode, Arial, Sans-serif">Created by Vectors Point</text>
    <text y="87" font-size="5" font-weight="bold" font-family="&#x27;Helvetica Neue&#x27;, Helvetica, Arial-Unicode, Arial, Sans-serif">from the Noun Project</text>
  </symbol>
  <symbol xmlns="http://www.w3.org/2000/svg" viewBox="0 0 90 112.5" id="check">
    <path d="M71.942 18.863c-2.678 1.199-5.245 2.661-7.695 4.293-4.927 3.242-9.432 7.102-13.657 11.22-4.224 4.126-8.156 8.542-11.874 13.134-.93 1.149-5.093 6.262-5.093 6.262L16.31 27.827 9.773 45.944l23.414 27.924c2.274-4.603 4.462-9.147 6.608-13.095.533-1.004 1.092-1.95 1.626-2.909 0 0 2.747-4.83 3.47-6.047 2.89-4.866 6.013-9.606 9.452-14.11 3.443-4.495 7.186-8.786 11.43-12.558 2.11-1.899 4.358-3.654 6.766-5.182 2.403-1.53 4.957-2.871 7.688-3.835-2.841.56-5.613 1.53-8.285 2.731z"></path>
    <text y="105" font-size="5" font-weight="bold" font-family="&#x27;Helvetica Neue&#x27;, Helvetica, Arial-Unicode, Arial, Sans-serif">Created by iconcheese</text>
    <text y="110" font-size="5" font-weight="bold" font-family="&#x27;Helvetica Neue&#x27;, Helvetica, Arial-Unicode, Arial, Sans-serif">from the Noun Project</text>
  </symbol>
  <symbol xmlns="http://www.w3.org/2000/svg" viewBox="0 0 50 62.5" id="audio-book">
    <path d="M4 42.656h16.052a4.904 4.904 0 0 0 4.436 2.777h1.014a4.903 4.903 0 0 0 4.437-2.777H46c1.654 0 3-1.345 3-3v-28.75c0-1.654-1.346-3-3-3h-1.62v-1.34c0-1.102-.898-2-2-2H7.61c-1.102 0-2 .898-2 2v1.34H4c-1.654 0-3 1.346-3 3v28.75c0 1.655 1.346 3 3 3zm38.378-6.17H26V13.25c3.786.495 6.72 3.734 6.72 7.652v.902l-.237-.052a1 1 0 0 0-1.191.762L29.7 29.756a1 1 0 0 0 .762 1.19l3.44.758c.178.037.359.057.54.057 1.21 0 2.24-.828 2.503-2.015l.921-4.19a2.564 2.564 0 0 0-1.948-3.05l-1.197-.263V20.9c0-5.023-3.83-9.169-8.721-9.673v-4.66h16.38l-.002 29.92zM33.03 23.92l2.456.541c.307.069.494.36.427.667l-.92 4.189a.592.592 0 0 1-.667.434l-2.459-.542 1.163-5.289zM7.61 6.567H24v4.66c-4.897.5-8.73 4.647-8.73 9.674v1.342l-1.2.265a2.544 2.544 0 0 0-1.604 1.12 2.533 2.533 0 0 0-.341 1.928l.919 4.184a2.57 2.57 0 0 0 3.052 1.963l3.425-.756a1 1 0 0 0 .761-1.19l-1.592-7.245a.998.998 0 0 0-1.192-.761l-.228.05v-.9c0-3.922 2.94-7.163 6.73-7.654v23.24H7.61V6.567zm9.342 17.353l1.164 5.289-2.445.54a.568.568 0 0 1-.672-.43l-.92-4.195a.547.547 0 0 1 .071-.418.56.56 0 0 1 .352-.245l2.45-.54zM3 10.906c0-.55.448-1 1-1h1.61v26.58c0 1.104.898 2 2 2h34.77c1.102 0 2-.896 2-2V9.907H46c.552 0 1 .45 1 1v28.75a1 1 0 0 1-1 1H29.26a1 1 0 0 0-.956.707 2.915 2.915 0 0 1-2.802 2.07h-1.014a2.925 2.925 0 0 1-2.805-2.082 1 1 0 0 0-.953-.695H4a1 1 0 0 1-1-1v-28.75z"></path>
    <text y="65" font-size="5" font-weight="bold" font-family="&#x27;Helvetica Neue&#x27;, Helvetica, Arial-Unicode, Arial, Sans-serif">Created by Vectors Point</text>
    <text y="70" font-size="5" font-weight="bold" font-family="&#x27;Helvetica Neue&#x27;, Helvetica, Arial-Unicode, Arial, Sans-serif">from the Noun Project</text>
  </symbol>
</svg>